<svg xmlns="http://www.w3.org/2000/svg" xmlns:xlink="http://www.w3.org/1999/xlink" width="1000" height="1000" viewBox="0 0 1000 1000"><defs><clipPath id="a"><circle cx="357.112" cy="500" r="87.231" style="fill:none"/></clipPath><clipPath id="b"><circle cx="642.888" cy="500" r="87.231" style="fill:none"/></clipPath></defs><path d="M418.288,319.868c-77.045-14.962-153.608,18.2-201.45,79.533a236.573,236.573,0,0,0-41.351,84.509c-.868,3.877-2.041,8.723-2.9,12.6-.437,2.527-1.365,7.729-1.816,10.263-.812,4.312-3.3,25.147-3.967,29.76-1.617,12.619-4.49,32.013-4.666,44.69-.288,7.132-.2,14.677.156,21.82,3.272,69.119,35.31,135.577,86.412,183.745a295.1,295.1,0,0,1-77.45-61.208c-34.369-37.671-59.89-86.884-71.246-137.542-5.71-24.1-8.177-53.993-11.721-78.6-.5-4.885-1.1-12.229-1.536-17.162-.187-3.936-.4-9.9-.539-13.921a338.308,338.308,0,0,1,30.064-146.185c36.785-82.423,106.406-148.779,189.66-183.955a390.8,390.8,0,0,1,112.348-28.348v200Z" style="fill:#46a5c6"/><rect x="129.308" y="219.868" width="738.989" height="621.879" rx="288.981" style="fill:#66d1ff"/><path d="M868.3,552.766c0,159.6-129.381,288.981-288.981,288.981" style="fill:none;stroke:#46a5c6;stroke-miterlimit:10;stroke-width:25px"/><circle cx="357.112" cy="500" r="87.231" style="fill:#fff"/><circle cx="642.888" cy="500" r="87.231" style="fill:#fff"/><g style="clip-path:url(#a)"><circle cx="392.593" cy="500" r="91.261" style="fill:#1c1c1c"/></g><g style="clip-path:url(#b)"><circle cx="607.407" cy="500" r="91.261" style="fill:#1c1c1c"/></g><path d="M391.8,454.5c10.144,7.223,10.3,21.977,0,29.969" style="fill:none;stroke:#fff;stroke-linejoin:round;stroke-width:7px"/><path d="M651.552,454.5c10.143,7.223,10.3,21.977,0,29.969" style="fill:none;stroke:#fff;stroke-linejoin:round;stroke-width:7px"/></svg>