<svg xmlns="http://www.w3.org/2000/svg" xmlns:xlink="http://www.w3.org/1999/xlink" width="843.775" height="734.379" viewBox="0 0 843.775 734.379"><defs><clipPath id="a"><circle cx="270.975" cy="380.132" r="87.231" style="fill:none"/></clipPath><clipPath id="b"><circle cx="556.752" cy="380.132" r="87.231" style="fill:none"/></clipPath></defs><path d="M332.152,200c-77.046-14.963-153.609,18.2-201.451,79.533A236.581,236.581,0,0,0,89.35,364.042c-.868,3.877-2.04,8.723-2.9,12.6-.436,2.527-1.365,7.729-1.816,10.263-.811,4.312-3.3,25.147-3.966,29.76-1.618,12.619-4.49,32.013-4.667,44.69-.287,7.132-.2,14.677.156,21.82,3.272,69.119,35.31,135.576,86.412,183.745a295.125,295.125,0,0,1-77.45-61.208c-34.368-37.671-59.89-86.884-71.245-137.542-5.71-24.1-8.178-53.994-11.722-78.6-.5-4.884-1.1-12.228-1.535-17.161-.187-3.937-.4-9.9-.54-13.921A338.309,338.309,0,0,1,30.145,212.3C66.93,129.879,136.55,63.524,219.8,28.347A390.793,390.793,0,0,1,332.152,0V200Z" style="fill:#46a5c6"/><rect x="43.171" y="100" width="738.989" height="621.879" rx="288.981" style="fill:#66d1ff"/><path d="M782.16,432.9c0,159.6-129.381,288.981-288.981,288.981" style="fill:none;stroke:#46a5c6;stroke-miterlimit:10;stroke-width:25px"/><circle cx="270.975" cy="380.132" r="87.231" style="fill:#fff"/><circle cx="556.752" cy="380.132" r="87.231" style="fill:#fff"/><g style="clip-path:url(#a)"><circle cx="306.456" cy="380.132" r="91.261" style="fill:#1c1c1c"/></g><g style="clip-path:url(#b)"><circle cx="521.271" cy="380.132" r="91.261" style="fill:#1c1c1c"/></g><path d="M305.659,334.629c10.143,7.223,10.3,21.977,0,29.969" style="fill:none;stroke:#fff;stroke-linejoin:round;stroke-width:7px"/><path d="M565.415,334.629c10.144,7.223,10.3,21.977,0,29.969" style="fill:none;stroke:#fff;stroke-linejoin:round;stroke-width:7px"/><path d="M431.534,470.671c-8.518,12.258-25.917,12.444-35.341,0" style="fill:none;stroke:#1c1c1c;stroke-linejoin:round;stroke-width:7px"/></svg>