<svg xmlns="http://www.w3.org/2000/svg" width="186.747" height="186.747" viewBox="0 0 186.747 186.747"><rect width="186.747" height="186.747" rx="23.341" style="fill:#fff"/><rect x="9.252" y="10.98" width="168.243" height="136.206" rx="19.214" style="fill:#f43f5e"/><path d="M63.216,172.528c22.88-15.667,7.681-30.09,7.681-30.09H124.3s-13.449,25.01-59.761,33.3A1.777,1.777,0,0,1,63.216,172.528Z" style="fill:#f43f5e"/><path d="M82.8,123.675l-2.871-15.008a.443.443,0,0,0-.2-.392.824.824,0,0,0-.457-.13H58a.814.814,0,0,0-.457.13.441.441,0,0,0-.2.392l-2.741,15.008a1.247,1.247,0,0,1-1.436,1.175H43.253a1.2,1.2,0,0,1-.979-.391,1.185,1.185,0,0,1-.2-1.044L61.524,34.668a1.342,1.342,0,0,1,1.436-1.175H74.575a1.247,1.247,0,0,1,1.436,1.175l19.576,88.747v.26a1.038,1.038,0,0,1-1.174,1.175H84.233A1.342,1.342,0,0,1,82.8,123.675ZM59.958,98.226H77.316q.391,0,.392-.522L68.833,51.373c-.088-.174-.176-.261-.261-.261s-.175.087-.261.261L59.566,97.7Q59.566,98.226,59.958,98.226Z" style="fill:#fff"/><path d="M100.937,123.546V114.41a3.737,3.737,0,0,1,.392-1.7l24.405-42.154a.434.434,0,0,0,0-.456.441.441,0,0,0-.392-.2H102.764a1.152,1.152,0,0,1-1.3-1.3V59.726a1.153,1.153,0,0,1,1.3-1.3H139.7a1.155,1.155,0,0,1,1.3,1.3v9.266a3.73,3.73,0,0,1-.392,1.7l-25.058,42.154a.427.427,0,0,0,0,.457.438.438,0,0,0,.392.2H140.09a1.154,1.154,0,0,1,1.305,1.3v8.746a1.153,1.153,0,0,1-1.305,1.3H102.242A1.153,1.153,0,0,1,100.937,123.546Zm13.834-73.935A1.057,1.057,0,0,1,114.9,48.5l8.092-14.1a1.894,1.894,0,0,1,1.565-.913h7.961a1.1,1.1,0,0,1,1.045.457,1.065,1.065,0,0,1-.131,1.109l-9.658,14.226a1.757,1.757,0,0,1-1.565.783h-6.4A1.1,1.1,0,0,1,114.771,49.611Z" style="fill:#fff"/></svg>