<svg xmlns="http://www.w3.org/2000/svg" width="761.143" height="200" viewBox="0 0 761.143 200"><path d="M230.178,141.6V33.249a1.409,1.409,0,0,1,1.593-1.594h12.11a1.41,1.41,0,0,1,1.593,1.594V129.33a.563.563,0,0,0,.638.638H281.8a1.41,1.41,0,0,1,1.593,1.594V141.6a1.408,1.408,0,0,1-1.593,1.593H231.771A1.407,1.407,0,0,1,230.178,141.6Z" style="fill:#0f172a"/><path d="M294.551,46.474a9.922,9.922,0,0,1-2.868-7.33,10.205,10.205,0,1,1,20.395,0,10.368,10.368,0,0,1-17.527,7.33Zm-.16,95.126V63.683a1.409,1.409,0,0,1,1.594-1.594H308.1a1.41,1.41,0,0,1,1.593,1.594V141.6a1.408,1.408,0,0,1-1.593,1.593h-12.11A1.408,1.408,0,0,1,294.391,141.6Z" style="fill:#0f172a"/><path d="M374.937,67.746q5.336,6.774,5.338,19.2V141.6a1.409,1.409,0,0,1-1.594,1.593H366.572a1.408,1.408,0,0,1-1.594-1.593V88.221q0-6.693-2.868-10.357a9.551,9.551,0,0,0-7.967-3.665,10.035,10.035,0,0,0-8.206,3.585q-2.95,3.585-3.267,10.118c0,.638-.054.956-.159.956V141.6a1.409,1.409,0,0,1-1.594,1.593h-12.11a1.407,1.407,0,0,1-1.593-1.593V63.683a1.409,1.409,0,0,1,1.593-1.594h12.11a1.41,1.41,0,0,1,1.594,1.594v4.3a.374.374,0,0,0,.318.4c.212.055.424-.08.638-.4q5.736-7.008,16.093-7.01Q369.6,60.974,374.937,67.746Z" style="fill:#0f172a"/><path d="M434.29,62.089H446.4a1.41,1.41,0,0,1,1.593,1.594V140.8q0,16.73-7.648,25.892t-26.291,9.162l-4.3-.159a1.578,1.578,0,0,1-1.593-1.753v-10.2q0-1.593,1.753-1.593,13.064.478,17.926-5.178t4.86-17.608v-3.346a.37.37,0,0,0-.24-.4c-.159-.053-.345.027-.557.238q-5.419,7.332-15.456,7.33-10.517,0-16.173-6.772t-5.656-18.4V86.149q0-11.788,5.736-18.563t16.093-6.772q10.356,0,15.456,7.33c.212.214.4.266.557.159a.53.53,0,0,0,.24-.478V63.683A1.409,1.409,0,0,1,434.29,62.089Zm-4.7,64.294a13.726,13.726,0,0,0,3.107-9.321V87.105a14.034,14.034,0,0,0-3.107-9.4,10.23,10.23,0,0,0-8.206-3.665,10.461,10.461,0,0,0-8.286,3.665,13.8,13.8,0,0,0-3.187,9.4v29.957a13.5,13.5,0,0,0,3.187,9.321,10.567,10.567,0,0,0,8.286,3.585A10.332,10.332,0,0,0,429.59,126.383Z" style="fill:#0f172a"/><path d="M469.263,137.537q-7.252-6.931-7.25-18.4V86.149q0-11.311,7.33-18.324t19.6-7.011q12.428,0,19.757,7.011t7.331,18.324v32.984q0,11.472-7.331,18.4t-19.757,6.931Q476.513,144.468,469.263,137.537ZM497.388,127.5a13.338,13.338,0,0,0,3.346-9.48V87.105a13.4,13.4,0,0,0-3.346-9.4,10.949,10.949,0,0,0-8.445-3.665,10.7,10.7,0,0,0-8.366,3.665,13.592,13.592,0,0,0-3.267,9.4v30.913a13.525,13.525,0,0,0,3.267,9.48,10.8,10.8,0,0,0,8.366,3.585A11.062,11.062,0,0,0,497.388,127.5Z" style="fill:#0f172a"/><path d="M582.4,135.227q-8.208,7.968-21.591,7.966H534.2A1.408,1.408,0,0,1,532.6,141.6V33.249a1.409,1.409,0,0,1,1.594-1.594h24.379q14.5,0,22.706,7.569t8.206,22.068q0,17.209-12.27,23.742-.8.478-.159.8a26.491,26.491,0,0,1,9.959,10.675,34.622,34.622,0,0,1,3.585,16.253Q590.6,127.261,582.4,135.227ZM547.9,45.518V79.3a.562.562,0,0,0,.637.637h10.2q7.488,0,11.632-4.541t4.143-12.667q0-8.445-4.143-13.146t-11.632-4.7h-10.2A.564.564,0,0,0,547.9,45.518Zm23.184,79.351q4.22-4.938,4.222-14.022,0-9.238-4.143-14.42t-11.472-5.178H548.535a.563.563,0,0,0-.637.637v37.285a.563.563,0,0,0,.637.638h11Q566.856,129.809,571.082,124.869Z" style="fill:#0f172a"/><path d="M609.482,137.537q-7.252-6.931-7.25-18.4V86.149q0-11.311,7.33-18.324t19.6-7.011q12.429,0,19.758,7.011t7.33,18.324v32.984q0,11.472-7.33,18.4t-19.758,6.931Q616.731,144.468,609.482,137.537ZM637.606,127.5a13.337,13.337,0,0,0,3.345-9.48V87.105a13.4,13.4,0,0,0-3.345-9.4,10.95,10.95,0,0,0-8.446-3.665,10.7,10.7,0,0,0-8.365,3.665,13.591,13.591,0,0,0-3.266,9.4v30.913a13.524,13.524,0,0,0,3.266,9.48,10.8,10.8,0,0,0,8.365,3.585A11.062,11.062,0,0,0,637.606,127.5Z" style="fill:#0f172a"/><path d="M670.588,141.6V33.249a1.409,1.409,0,0,1,1.594-1.594h12.109a1.41,1.41,0,0,1,1.594,1.594V141.6a1.409,1.409,0,0,1-1.594,1.593H672.182A1.408,1.408,0,0,1,670.588,141.6Z" style="fill:#0f172a"/><path d="M731.775,73.243H720.62a.563.563,0,0,0-.636.637v44.774q0,6.375,2.23,8.844t7.011,2.311h1.434a1.409,1.409,0,0,1,1.593,1.593v10.2a1.408,1.408,0,0,1-1.593,1.593h-4.94q-10.2,0-15.376-3.983t-5.179-15.138V73.88a.564.564,0,0,0-.636-.637h-6.215a1.408,1.408,0,0,1-1.594-1.594V63.683a1.409,1.409,0,0,1,1.594-1.594h6.215a.563.563,0,0,0,.636-.637V43.446a1.409,1.409,0,0,1,1.594-1.593H718.39a1.41,1.41,0,0,1,1.594,1.593V61.452a.562.562,0,0,0,.636.637h11.155a1.409,1.409,0,0,1,1.592,1.594v7.966A1.408,1.408,0,0,1,731.775,73.243Z" style="fill:#0f172a"/><rect x="29.139" y="17.606" width="168.243" height="136.206" rx="19.214" style="fill:#f43f5e"/><path d="M83.1,179.154c22.88-15.667,7.682-30.089,7.682-30.089h53.406s-13.448,25.01-59.761,33.3A1.777,1.777,0,0,1,83.1,179.154Z" style="fill:#f43f5e"/><path d="M102.685,130.3l-2.871-15.009a.444.444,0,0,0-.2-.392.822.822,0,0,0-.457-.13H77.888a.819.819,0,0,0-.457.13.444.444,0,0,0-.2.392L74.494,130.3a1.246,1.246,0,0,1-1.435,1.175H63.14a1.2,1.2,0,0,1-.979-.392,1.184,1.184,0,0,1-.2-1.044L81.411,41.294a1.343,1.343,0,0,1,1.436-1.175H94.463A1.247,1.247,0,0,1,95.9,41.294l19.577,88.747v.261a1.038,1.038,0,0,1-1.174,1.175H104.12A1.342,1.342,0,0,1,102.685,130.3Zm-22.84-25.449H97.2c.262,0,.392-.174.392-.523L88.72,58c-.087-.173-.175-.261-.261-.261s-.175.088-.261.261L79.454,104.33Q79.454,104.854,79.845,104.853Z" style="fill:#fff"/><path d="M120.824,130.172v-9.136a3.746,3.746,0,0,1,.392-1.7l24.406-42.155a.425.425,0,0,0-.392-.652H122.652a1.154,1.154,0,0,1-1.306-1.3V66.352a1.154,1.154,0,0,1,1.306-1.305h36.934a1.154,1.154,0,0,1,1.3,1.305v9.267a3.741,3.741,0,0,1-.391,1.7L135.442,119.47a.427.427,0,0,0,0,.457.437.437,0,0,0,.391.195h24.145a1.155,1.155,0,0,1,1.3,1.305v8.745a1.154,1.154,0,0,1-1.3,1.305H122.13A1.154,1.154,0,0,1,120.824,130.172Zm13.834-73.935a1.061,1.061,0,0,1,.131-1.109l8.092-14.095a1.894,1.894,0,0,1,1.566-.914h7.961a1.1,1.1,0,0,1,1.044.457,1.064,1.064,0,0,1-.13,1.11l-9.658,14.225a1.759,1.759,0,0,1-1.566.783h-6.4A1.1,1.1,0,0,1,134.658,56.237Z" style="fill:#fff"/></svg>